<svg xmlns="http://www.w3.org/2000/svg" width="800" height="520" viewBox="0 0 800 520" font-family="sans-serif">
<rect width="800" height="520" fill="#0e1116"/>
<text x="86" y="30" fill="#e6edf3" font-size="20" font-weight="bold">component_count (order parameter) vs decay</text>
<text x="86" y="48" fill="#9aa7b3" font-size="12">mean +/- std over 6 seeds, 3000 ticks, 256x256 grid</text>
<rect x="86" y="56" width="686" height="394" fill="#161b22" stroke="#30363d"/>
<line x1="276.56" y1="56" x2="276.56" y2="450" stroke="#21262d"/>
<text x="276.56" y="468.00" fill="#9aa7b3" font-size="11" text-anchor="middle">0.850</text>
<line x1="467.11" y1="56" x2="467.11" y2="450" stroke="#21262d"/>
<text x="467.11" y="468.00" fill="#9aa7b3" font-size="11" text-anchor="middle">0.900</text>
<line x1="657.67" y1="56" x2="657.67" y2="450" stroke="#21262d"/>
<text x="657.67" y="468.00" fill="#9aa7b3" font-size="11" text-anchor="middle">0.950</text>
<line x1="86" y1="406.30" x2="772" y2="406.30" stroke="#21262d"/>
<text x="78.00" y="406.30" fill="#9aa7b3" font-size="11" text-anchor="end" dominant-baseline="middle">-0</text>
<line x1="86" y1="327.49" x2="772" y2="327.49" stroke="#21262d"/>
<text x="78.00" y="327.49" fill="#9aa7b3" font-size="11" text-anchor="end" dominant-baseline="middle">20</text>
<line x1="86" y1="248.68" x2="772" y2="248.68" stroke="#21262d"/>
<text x="78.00" y="248.68" fill="#9aa7b3" font-size="11" text-anchor="end" dominant-baseline="middle">40</text>
<line x1="86" y1="169.86" x2="772" y2="169.86" stroke="#21262d"/>
<text x="78.00" y="169.86" fill="#9aa7b3" font-size="11" text-anchor="end" dominant-baseline="middle">60</text>
<line x1="86" y1="91.05" x2="772" y2="91.05" stroke="#21262d"/>
<text x="78.00" y="91.05" fill="#9aa7b3" font-size="11" text-anchor="end" dominant-baseline="middle">80</text>
<text x="429.00" y="498.00" fill="#e6edf3" font-size="13" text-anchor="middle">decay</text>
<text x="22.00" y="253.00" fill="#e6edf3" font-size="13" text-anchor="middle" transform="rotate(-90 22.00 253.00)">component_count (order parameter)</text>
<line x1="86.00" y1="306.65" x2="86.00" y2="371.96" stroke="#3fb4c9" stroke-width="1.4"/>
<line x1="82.50" y1="306.65" x2="89.50" y2="306.65" stroke="#3fb4c9" stroke-width="1.4"/>
<line x1="82.50" y1="371.96" x2="89.50" y2="371.96" stroke="#3fb4c9" stroke-width="1.4"/>
<line x1="122.11" y1="211.13" x2="122.11" y2="422.83" stroke="#3fb4c9" stroke-width="1.4"/>
<line x1="118.61" y1="211.13" x2="125.61" y2="211.13" stroke="#3fb4c9" stroke-width="1.4"/>
<line x1="118.61" y1="422.83" x2="125.61" y2="422.83" stroke="#3fb4c9" stroke-width="1.4"/>
<line x1="158.21" y1="283.55" x2="158.21" y2="401.63" stroke="#3fb4c9" stroke-width="1.4"/>
<line x1="154.71" y1="283.55" x2="161.71" y2="283.55" stroke="#3fb4c9" stroke-width="1.4"/>
<line x1="154.71" y1="401.63" x2="161.71" y2="401.63" stroke="#3fb4c9" stroke-width="1.4"/>
<line x1="194.32" y1="371.98" x2="194.32" y2="393.32" stroke="#3fb4c9" stroke-width="1.4"/>
<line x1="190.82" y1="371.98" x2="197.82" y2="371.98" stroke="#3fb4c9" stroke-width="1.4"/>
<line x1="190.82" y1="393.32" x2="197.82" y2="393.32" stroke="#3fb4c9" stroke-width="1.4"/>
<line x1="230.42" y1="345.81" x2="230.42" y2="395.86" stroke="#3fb4c9" stroke-width="1.4"/>
<line x1="226.92" y1="345.81" x2="233.92" y2="345.81" stroke="#3fb4c9" stroke-width="1.4"/>
<line x1="226.92" y1="395.86" x2="233.92" y2="395.86" stroke="#3fb4c9" stroke-width="1.4"/>
<line x1="266.53" y1="359.25" x2="266.53" y2="395.55" stroke="#3fb4c9" stroke-width="1.4"/>
<line x1="263.03" y1="359.25" x2="270.03" y2="359.25" stroke="#3fb4c9" stroke-width="1.4"/>
<line x1="263.03" y1="395.55" x2="270.03" y2="395.55" stroke="#3fb4c9" stroke-width="1.4"/>
<line x1="302.63" y1="362.90" x2="302.63" y2="397.15" stroke="#3fb4c9" stroke-width="1.4"/>
<line x1="299.13" y1="362.90" x2="306.13" y2="362.90" stroke="#3fb4c9" stroke-width="1.4"/>
<line x1="299.13" y1="397.15" x2="306.13" y2="397.15" stroke="#3fb4c9" stroke-width="1.4"/>
<line x1="338.74" y1="370.16" x2="338.74" y2="396.46" stroke="#3fb4c9" stroke-width="1.4"/>
<line x1="335.24" y1="370.16" x2="342.24" y2="370.16" stroke="#3fb4c9" stroke-width="1.4"/>
<line x1="335.24" y1="396.46" x2="342.24" y2="396.46" stroke="#3fb4c9" stroke-width="1.4"/>
<line x1="374.84" y1="376.38" x2="374.84" y2="399.43" stroke="#3fb4c9" stroke-width="1.4"/>
<line x1="371.34" y1="376.38" x2="378.34" y2="376.38" stroke="#3fb4c9" stroke-width="1.4"/>
<line x1="371.34" y1="399.43" x2="378.34" y2="399.43" stroke="#3fb4c9" stroke-width="1.4"/>
<line x1="410.95" y1="383.50" x2="410.95" y2="398.88" stroke="#3fb4c9" stroke-width="1.4"/>
<line x1="407.45" y1="383.50" x2="414.45" y2="383.50" stroke="#3fb4c9" stroke-width="1.4"/>
<line x1="407.45" y1="398.88" x2="414.45" y2="398.88" stroke="#3fb4c9" stroke-width="1.4"/>
<line x1="447.05" y1="353.39" x2="447.05" y2="405.35" stroke="#3fb4c9" stroke-width="1.4"/>
<line x1="443.55" y1="353.39" x2="450.55" y2="353.39" stroke="#3fb4c9" stroke-width="1.4"/>
<line x1="443.55" y1="405.35" x2="450.55" y2="405.35" stroke="#3fb4c9" stroke-width="1.4"/>
<line x1="483.16" y1="380.36" x2="483.16" y2="400.71" stroke="#3fb4c9" stroke-width="1.4"/>
<line x1="479.66" y1="380.36" x2="486.66" y2="380.36" stroke="#3fb4c9" stroke-width="1.4"/>
<line x1="479.66" y1="400.71" x2="486.66" y2="400.71" stroke="#3fb4c9" stroke-width="1.4"/>
<line x1="519.26" y1="393.87" x2="519.26" y2="402.97" stroke="#3fb4c9" stroke-width="1.4"/>
<line x1="515.76" y1="393.87" x2="522.76" y2="393.87" stroke="#3fb4c9" stroke-width="1.4"/>
<line x1="515.76" y1="402.97" x2="522.76" y2="402.97" stroke="#3fb4c9" stroke-width="1.4"/>
<line x1="555.37" y1="396.79" x2="555.37" y2="402.67" stroke="#3fb4c9" stroke-width="1.4"/>
<line x1="551.87" y1="396.79" x2="558.87" y2="396.79" stroke="#3fb4c9" stroke-width="1.4"/>
<line x1="551.87" y1="402.67" x2="558.87" y2="402.67" stroke="#3fb4c9" stroke-width="1.4"/>
<line x1="591.47" y1="400.23" x2="591.47" y2="403.17" stroke="#3fb4c9" stroke-width="1.4"/>
<line x1="587.97" y1="400.23" x2="594.97" y2="400.23" stroke="#3fb4c9" stroke-width="1.4"/>
<line x1="587.97" y1="403.17" x2="594.97" y2="403.17" stroke="#3fb4c9" stroke-width="1.4"/>
<line x1="627.58" y1="388.15" x2="627.58" y2="402.11" stroke="#3fb4c9" stroke-width="1.4"/>
<line x1="624.08" y1="388.15" x2="631.08" y2="388.15" stroke="#3fb4c9" stroke-width="1.4"/>
<line x1="624.08" y1="402.11" x2="631.08" y2="402.11" stroke="#3fb4c9" stroke-width="1.4"/>
<line x1="663.68" y1="396.79" x2="663.68" y2="402.67" stroke="#3fb4c9" stroke-width="1.4"/>
<line x1="660.18" y1="396.79" x2="667.18" y2="396.79" stroke="#3fb4c9" stroke-width="1.4"/>
<line x1="660.18" y1="402.67" x2="667.18" y2="402.67" stroke="#3fb4c9" stroke-width="1.4"/>
<line x1="699.79" y1="380.56" x2="699.79" y2="405.76" stroke="#3fb4c9" stroke-width="1.4"/>
<line x1="696.29" y1="380.56" x2="703.29" y2="380.56" stroke="#3fb4c9" stroke-width="1.4"/>
<line x1="696.29" y1="405.76" x2="703.29" y2="405.76" stroke="#3fb4c9" stroke-width="1.4"/>
<line x1="735.89" y1="370.96" x2="735.89" y2="410.11" stroke="#3fb4c9" stroke-width="1.4"/>
<line x1="732.39" y1="370.96" x2="739.39" y2="370.96" stroke="#3fb4c9" stroke-width="1.4"/>
<line x1="732.39" y1="410.11" x2="739.39" y2="410.11" stroke="#3fb4c9" stroke-width="1.4"/>
<line x1="772.00" y1="395.20" x2="772.00" y2="401.63" stroke="#3fb4c9" stroke-width="1.4"/>
<line x1="768.50" y1="395.20" x2="775.50" y2="395.20" stroke="#3fb4c9" stroke-width="1.4"/>
<line x1="768.50" y1="401.63" x2="775.50" y2="401.63" stroke="#3fb4c9" stroke-width="1.4"/>
<polyline points="86.00,339.31 122.11,316.98 158.21,342.59 194.32,382.65 230.42,370.83 266.53,377.40 302.63,380.03 338.74,383.31 374.84,387.91 410.95,391.19 447.05,379.37 483.16,390.53 519.26,398.42 555.37,399.73 591.47,401.70 627.58,395.13 663.68,399.73 699.79,393.16 735.89,390.53 772.00,398.42" fill="none" stroke="#e85d9c" stroke-width="2.2"/>
<circle cx="86.00" cy="339.31" r="3.2" fill="#e85d9c"/>
<circle cx="122.11" cy="316.98" r="3.2" fill="#e85d9c"/>
<circle cx="158.21" cy="342.59" r="3.2" fill="#e85d9c"/>
<circle cx="194.32" cy="382.65" r="3.2" fill="#e85d9c"/>
<circle cx="230.42" cy="370.83" r="3.2" fill="#e85d9c"/>
<circle cx="266.53" cy="377.40" r="3.2" fill="#e85d9c"/>
<circle cx="302.63" cy="380.03" r="3.2" fill="#e85d9c"/>
<circle cx="338.74" cy="383.31" r="3.2" fill="#e85d9c"/>
<circle cx="374.84" cy="387.91" r="3.2" fill="#e85d9c"/>
<circle cx="410.95" cy="391.19" r="3.2" fill="#e85d9c"/>
<circle cx="447.05" cy="379.37" r="3.2" fill="#e85d9c"/>
<circle cx="483.16" cy="390.53" r="3.2" fill="#e85d9c"/>
<circle cx="519.26" cy="398.42" r="3.2" fill="#e85d9c"/>
<circle cx="555.37" cy="399.73" r="3.2" fill="#e85d9c"/>
<circle cx="591.47" cy="401.70" r="3.2" fill="#e85d9c"/>
<circle cx="627.58" cy="395.13" r="3.2" fill="#e85d9c"/>
<circle cx="663.68" cy="399.73" r="3.2" fill="#e85d9c"/>
<circle cx="699.79" cy="393.16" r="3.2" fill="#e85d9c"/>
<circle cx="735.89" cy="390.53" r="3.2" fill="#e85d9c"/>
<circle cx="772.00" cy="398.42" r="3.2" fill="#e85d9c"/>
</svg>
